<?xml version="1.0" encoding="UTF-8"?>
<svg xmlns="http://www.w3.org/2000/svg"  xmlns:xlink="http://www.w3.org/1999/xlink" width="512" height="512" viewBox="0 0 60 60" version="1.1"><!-- Generator: Sketch 51.3 (57544) - http://www.bohemiancoding.com/sketch --><title>006 - Home Insurance</title><desc>Created with Sketch.</desc><defs/><g id="Page-1" stroke="none" stroke-width="1" fill="none" fill-rule="evenodd"><g id="006---Home-Insurance" fill="#000000" fill-rule="nonzero"><path d="M4.208,39.342 C4.73717222,40.5088011 5.47263195,41.5704919 6.379,42.476 L12.543,48.639 C12.195395,49.0070336 12.0012041,49.4937624 12,50 L12,58 C12,59.1045695 12.8954305,60 14,60 L25,60 C26.1045695,60 27,59.1045695 27,58 L27,50 C27,48.8954305 26.1045695,48 25,48 L25,46.139 C25.0305304,43.7708534 24.2582606,41.4621509 22.809,39.589 C21.9586309,38.4707591 20.7996995,37.6257195 19.475,37.158 C17.3691733,36.2730283 15.4325476,35.0299879 13.751,33.484 C12.1903615,32.1942997 9.9712756,32.0726393 8.279,33.184 L6.121,28.146 C5.66102057,27.1040349 4.68010027,26.3866155 3.54774229,26.2639868 C2.4153843,26.1413582 1.30362076,26.6321504 0.631242243,27.5514869 C-0.0411362773,28.4708233 -0.171979482,29.6790349 0.288,30.721 L4.208,39.342 Z M25,58 L14,58 L14,50 L25,50 L25,58 Z M2.191,28.758 C2.40759322,28.4155579 2.78582545,28.2094213 3.191,28.213 C3.66700986,28.2122141 4.09736921,28.4961017 4.284,28.934 L6.52,34.151 C7.11429336,35.5425105 7.97010296,36.8070447 9.041,37.876 L13.61,42.445 C13.8610745,42.7049566 14.2328779,42.8092126 14.5825073,42.7176972 C14.9321368,42.6261817 15.2051817,42.3531368 15.2966972,42.0035073 C15.3882126,41.6538779 15.2839566,41.2820745 15.024,41.031 L10.455,36.462 C9.99598241,36.0037515 9.58331535,35.501316 9.223,34.962 C10.1835296,34.2224882 11.5276474,34.2448902 12.463,35.016 C14.3318599,36.7316939 16.4921067,38.0998389 18.842,39.056 C19.7983175,39.4043895 20.6323375,40.0239969 21.242,40.839 C22.4095377,42.3565354 23.0291468,44.2245266 23,46.139 L23,48 L14.731,48 L7.793,41.062 C7.05633569,40.3260078 6.45843454,39.4632009 6.028,38.515 L2.108,29.894 C1.93781717,29.5263749 1.96918987,29.0969847 2.191,28.758 Z" id="Shape"/><path d="M22,53 L21,53 C20.4477153,53 20,53.4477153 20,54 C20,54.5522847 20.4477153,55 21,55 L22,55 C22.5522847,55 23,54.5522847 23,54 C23,53.4477153 22.5522847,53 22,53 Z" id="Shape"/><path d="M40.525,37.158 C39.2003005,37.6257195 38.0413691,38.4707591 37.191,39.589 C35.7417394,41.4621509 34.9694696,43.7708534 35,46.139 L35,48 C33.8954305,48 33,48.8954305 33,50 L33,58 C33,59.1045695 33.8954305,60 35,60 L46,60 C47.1045695,60 48,59.1045695 48,58 L48,50 C47.9987959,49.4937624 47.804605,49.0070336 47.457,48.639 L53.621,42.476 C54.5271174,41.5706634 55.2625517,40.509348 55.792,39.343 L59.712,30.721 C60.1719794,29.6790349 60.0411362,28.4708233 59.3687577,27.5514869 C58.6963792,26.6321505 57.5846157,26.1413582 56.4522577,26.2639869 C55.3198997,26.3866156 54.3389794,27.1040349 53.879,28.146 L51.721,33.181 C50.0292133,32.0691473 47.8100729,32.190833 46.25,33.481 C44.5681362,35.0278327 42.6312098,36.2718638 40.525,37.158 Z M46,58 L35,58 L35,50 L46,50 L46,58 Z M50.776,34.962 C50.4161315,35.5013678 50.0037905,36.0038142 49.545,36.462 L44.976,41.031 C44.5970278,41.4233789 44.6024476,42.0470848 44.9881814,42.4328186 C45.3739152,42.8185524 45.9976211,42.8239722 46.39,42.445 L50.959,37.876 C52.029897,36.8070447 52.8857066,35.5425105 53.48,34.151 L55.717,28.933 C55.90415,28.495671 56.3343096,28.2123087 56.81,28.213 C57.213904,28.2133006 57.5900345,28.4186257 57.8087347,28.7581971 C58.0274348,29.0977685 58.0587931,29.5251433 57.892,29.893 L53.972,38.515 C53.5415655,39.4632009 52.9436643,40.3260078 52.207,41.062 L45.269,48 L37,48 L37,46.139 C36.9697088,44.2250013 37.5878922,42.3570584 38.754,40.839 C39.3636625,40.0239969 40.1976825,39.4043895 41.154,39.056 C43.5041096,38.0996763 45.6646575,36.731555 47.534,35.016 C48.4697191,34.2438309 49.815084,34.221422 50.776,34.962 Z" id="Shape"/><path d="M39,53 L38,53 C37.4477153,53 37,53.4477153 37,54 C37,54.5522847 37.4477153,55 38,55 L39,55 C39.5522847,55 40,54.5522847 40,54 C40,53.4477153 39.5522847,53 39,53 Z" id="Shape"/><path d="M13.553,18.9 C13.8927613,19.0677128 14.2981287,19.0289957 14.6,18.8 L16,17.75 L16,32 C16,33.1045695 16.8954305,34 18,34 L42,34 C43.1045695,34 44,33.1045695 44,32 L44,17.75 L45.4,18.8 C45.7030176,19.0272632 46.1084296,19.0638192 46.4472136,18.8944272 C46.7859976,18.7250352 47,18.3787721 47,18 L47,13 C47,12.6852427 46.8518058,12.3888544 46.6,12.2 L30.6,0.2 C30.2444444,-0.0666666667 29.7555556,-0.0666666667 29.4,0.2 L22,5.75 L22,4 C22,2.8954305 21.1045695,2 20,2 L18,2 C16.8954305,2 16,2.8954305 16,4 L16,10.25 L13.4,12.2 C13.1481942,12.3888544 13,12.6852427 13,13 L13,18 C12.9979212,18.3808256 13.2123306,18.7297741 13.553,18.9 Z M26,32 L26,24 C26,21.790861 27.790861,20 30,20 C32.209139,20 34,21.790861 34,24 L34,32 L26,32 Z M42,32 L36,32 L36,24 C36,20.6862915 33.3137085,18 30,18 C26.6862915,18 24,20.6862915 24,24 L24,32 L18,32 L18,16.25 L30,7.25 L42,16.25 L42,32 Z M18,4 L20,4 L20,7.25 L18,8.75 L18,4 Z M15,13.5 L30,2.25 L45,13.5 L45,16 L30.6,5.2 C30.2444444,4.93333333 29.7555556,4.93333333 29.4,5.2 L15,16 L15,13.5 Z" id="Shape"/></g></g></svg>
