<svg height="512pt" viewBox="0 0 512.1008 512" width="512pt" fill="#021639" xmlns="http://www.w3.org/2000/svg"><path d="m501.632812 175.785156-230.398437-170.664062c-9.035156-6.761719-21.445313-6.761719-30.480469 0l-230.402344 170.664062c-7.597656 5.636719-11.472656 15.007813-10.066406 24.363282 1.402344 9.359374 7.855469 17.179687 16.773438 20.335937v274.542969c0 9.425781 7.644531 17.066406 17.070312 17.066406h443.730469c9.425781 0 17.066406-7.640625 17.066406-17.066406v-274.722656c8.964844-3.054688 15.480469-10.855469 16.890625-20.21875 1.410156-9.367188-2.515625-18.738282-10.183594-24.300782zm-481.160156 13.746094 230.402344-170.664062c3.007812-2.257813 7.144531-2.257813 10.152344 0l230.402344 170.664062c1.820312 1.347656 3.03125 3.367188 3.363281 5.605469.332031 2.242187-.238281 4.523437-1.589844 6.34375-2.859375 3.703125-8.132813 4.488281-11.945313 1.773437l-220.144531-163.183594c-3.019531-2.238281-7.152343-2.238281-10.171875 0l-220.226562 163.117188c-3.769532 2.828125-9.121094 2.0625-11.949219-1.707031-2.824219-3.769531-2.0625-9.121094 1.707031-11.949219zm13.65625 211.628906h17.066406v93.867188h-17.066406zm51.199219 0v93.867188h-17.066406v-93.867188zm34.132813 0v93.867188h-17.066407v-93.867188zm34.132812 0v93.867188h-17.066406v-93.867188zm51.199219 93.867188v-153.601563h102.402343v153.601563zm102.402343-170.667969h-102.402343c-9.425781 0-17.066407 7.640625-17.066407 17.066406v153.601563h-17.066406v-102.402344c0-4.710938-3.820312-8.53125-8.53125-8.53125h-128v-163.730469c2.390625-.796875 4.652344-1.945312 6.707032-3.414062l215.15625-159.402344 215.167968 159.386719c2.046875 1.5 4.304688 2.691406 6.699219 3.53125v163.628906h-128c-4.710937 0-8.53125 3.820312-8.53125 8.53125v102.402344h-17.066406v-153.601563c0-9.425781-7.640625-17.066406-17.066407-17.066406zm85.332032 76.800781h17.066406v93.867188h-17.066406zm-17.066406 93.867188h-17.066407v-93.867188h17.066407zm51.199218-93.867188h17.066406v93.867188h-17.066406zm34.132813 93.867188v-93.867188h17.066406v93.867188zm0 0"/><path d="m145.058594 264.625h-68.265625c-9.425781 0-17.066407 7.640625-17.066407 17.066406v68.269532c0 9.425781 7.640626 17.066406 17.066407 17.066406h68.265625c9.425781 0 17.070312-7.640625 17.070312-17.066406v-68.269532c0-9.425781-7.644531-17.066406-17.070312-17.066406zm0 42.667969h-25.597656v-25.601563h25.597656zm-42.664063-25.601563v25.601563h-25.601562v-25.601563zm-25.601562 42.667969h25.601562v25.601563h-25.601562zm42.667969 25.601563v-25.601563h25.597656v25.601563zm0 0"/><path d="m366.925781 367.027344h68.269531c9.425782 0 17.066407-7.640625 17.066407-17.066406v-68.269532c0-9.425781-7.640625-17.066406-17.066407-17.066406h-68.269531c-9.425781 0-17.066406 7.640625-17.066406 17.066406v68.269532c0 9.425781 7.640625 17.066406 17.066406 17.066406zm0-42.667969h25.601563v25.601563h-25.601563zm42.667969 25.601563v-25.601563h25.601562v25.601563zm25.601562-42.667969h-25.601562v-25.601563h25.601562zm-42.667968-25.601563v25.601563h-25.601563v-25.601563zm0 0"/><path d="m341.328125 204.894531v-34.136719c0-9.421874-7.640625-17.066406-17.066406-17.066406h-136.535157c-9.425781 0-17.066406 7.644532-17.066406 17.066406v34.136719c0 9.425781 7.640625 17.066407 17.066406 17.066407h136.535157c9.425781 0 17.066406-7.640626 17.066406-17.066407zm-17.066406 0h-59.734375v-34.136719h59.734375zm-136.535157-34.136719h59.734376v34.136719h-59.734376zm0 0"/><path d="m290.128906 418.226562c0 4.710938-3.820312 8.53125-8.535156 8.53125-4.710938 0-8.535156-3.820312-8.535156-8.53125 0-4.714843 3.824218-8.535156 8.535156-8.535156 4.714844 0 8.535156 3.820313 8.535156 8.535156zm0 0"/></svg>