<svg id="Capa_1" enable-background="new 0 0 512 512" height="512" fill="#021639" viewBox="0 0 512 512" width="512" xmlns="http://www.w3.org/2000/svg"><path d="m342.301 244.942c-8.887 0-16.118 7.23-16.118 16.118v16.101c0 8.903 7.23 16.146 16.118 16.146h43.965c8.903 0 16.146-7.243 16.146-16.146v-16.101c0-8.887-7.243-16.118-16.146-16.118zm45.111 16.118v16.101c0 .621-.524 1.146-1.146 1.146h-43.965c-.595 0-1.118-.535-1.118-1.146v-16.101c0-.595.522-1.118 1.118-1.118h43.965c.611 0 1.146.523 1.146 1.118z"/><path d="m439.076 0h-366.18c-40.195 0-72.896 32.701-72.896 72.896v366.181c0 40.21 32.701 72.923 72.896 72.923h366.181c40.21 0 72.924-32.713 72.924-72.924v-366.18c-.001-40.195-32.714-72.896-72.925-72.896zm57.924 439.076c0 31.94-25.984 57.924-57.924 57.924h-366.18c-31.924 0-57.896-25.984-57.896-57.924v-366.18c0-31.924 25.972-57.896 57.896-57.896h366.181c31.939 0 57.923 25.972 57.923 57.896z"/><path d="m430.588 33.902-158.854-.34c-.005 0-.011 0-.017 0-4.134 0-7.491 3.347-7.5 7.484-.009 4.142 3.342 7.507 7.484 7.516l158.851.34c17.929.046 32.516 14.637 32.516 32.525v349.145c0 17.919-14.578 32.497-32.497 32.497h-349.143c-17.935 0-32.525-14.578-32.525-32.497v-349.144c0-17.935 14.591-32.525 32.525-32.525h155.622c4.142 0 7.5-3.358 7.5-7.5s-3.358-7.5-7.5-7.5h-155.622c-26.206 0-47.525 21.32-47.525 47.525v349.145c0 26.19 21.32 47.497 47.525 47.497h349.145c26.19 0 47.497-21.307 47.497-47.497v-349.145c-.001-26.138-21.299-47.458-47.482-47.526z"/><path d="m440.907 185.261v-20.693c0-7.371-5.997-13.368-13.368-13.368h-42.54l-11.449-33.274c-3.572-10.474-16.821-21.605-34.339-21.605h-166.451c-17.464 0-30.723 11.119-34.333 21.586l-11.455 33.293h-42.54c-7.355 0-13.339 5.997-13.339 13.368v20.693c0 6.246 4.243 11.143 11.335 13.095l21.271 5.898-19.941 20.314c-.189.192-.368.395-.535.607-10.936 13.854-10.798 25.929-10.639 39.91.02 1.734.04 3.525.04 5.394l.057 50.627v40.13 33.534c0 11.31 9.214 20.511 20.539 20.511h34.838c11.31 0 20.511-9.201 20.511-20.511v-26.034h92.308c4.142 0 7.5-3.358 7.5-7.5s-3.358-7.5-7.5-7.5h-99.808-53.388v-25.139h134.403 67.833 134.375v25.139h-53.388-95.896c-4.142 0-7.5 3.358-7.5 7.5s3.358 7.5 7.5 7.5h88.396v26.034c0 11.31 9.214 20.511 20.539 20.511h34.81c11.326 0 20.54-9.201 20.54-20.511v-33.534-40.126l.085-50.64c0-1.86.021-3.651.04-5.386.159-13.981.297-26.056-10.639-39.91-.168-.213-.348-.417-.538-.61l-19.961-20.313 21.233-5.887c7.134-1.946 11.394-6.844 11.394-13.103zm-16.616 209.51c0 3.039-2.485 5.511-5.54 5.511h-34.81c-3.054 0-5.539-2.472-5.539-5.511v-26.034h45.888v26.034zm-338.198-210.972v-17.598h35.718l-8.641 25.113-26.747-7.416c-.121-.033-.231-.066-.33-.099zm47.476 184.937v26.034c0 3.039-2.472 5.511-5.511 5.511h-34.838c-3.054 0-5.539-2.472-5.539-5.511v-26.034zm96.014-55.138v-27.252c0-14.559 11.844-26.403 26.402-26.403 14.574 0 26.431 11.844 26.431 26.403v27.252zm194.834-48.684c-.021 1.789-.042 3.638-.042 5.544l-.072 43.14h-126.886v-27.252c0-22.83-18.586-41.403-41.431-41.403-22.829 0-41.402 18.573-41.402 41.403v27.252h-126.912l-.048-43.127c0-1.919-.021-3.768-.042-5.557-.146-12.805-.234-20.587 7.174-30.139l28.562-29.095c.007-.007.013-.015.02-.023.046-.047.086-.101.131-.149.199-.216.384-.442.556-.679.066-.091.13-.182.192-.276.194-.294.375-.597.527-.917.014-.03.024-.063.038-.094.101-.221.196-.446.276-.677l27.552-80.074c1.379-4 8.707-11.471 20.15-11.471h166.451c11.475 0 18.781 7.455 20.149 11.466l27.553 80.079c.079.23.174.453.274.673.015.032.025.067.04.099.151.319.332.622.526.916.062.094.126.185.192.275.173.238.358.465.558.682.044.047.083.099.128.146.008.008.015.018.023.026l28.589 29.093c7.409 9.553 7.32 17.335 7.174 30.139zm1.49-81.123c-.11.036-.234.073-.372.111l-26.734 7.412-8.641-25.113h35.746v17.59z"/><path d="m359.205 206.033c2.195-3.02 2.819-6.712 1.697-10.175l-17.743-53.598c-3.03-9.175-8.536-11.101-12.621-11.101h-149.075c-4.098 0-9.619 1.926-12.649 11.099l-17.71 53.585c-1.14 3.421-.54 7.124 1.647 10.158 2.507 3.478 6.709 5.638 10.967 5.638h184.536c4.24.001 8.436-2.147 10.951-5.606zm-192.567-9.393 16.418-49.676c.104-.317.2-.583.286-.805h145.288c.085.224.181.491.286.81l16.443 49.671z"/><path d="m169.67 244.942h-43.965c-8.887 0-16.117 7.23-16.117 16.118v16.101c0 8.903 7.23 16.146 16.117 16.146h43.965c8.887 0 16.118-7.243 16.118-16.146v-16.101c0-8.887-7.23-16.118-16.118-16.118zm1.118 32.219c0 .61-.522 1.146-1.118 1.146h-43.965c-.595 0-1.117-.535-1.117-1.146v-16.101c0-.595.522-1.118 1.117-1.118h43.965c.595 0 1.118.522 1.118 1.118z"/></svg>