<svg version="1.1"
	 xmlns="http://www.w3.org/2000/svg" xmlns:xlink="http://www.w3.org/1999/xlink" xmlns:a="http://ns.adobe.com/AdobeSVGViewerExtensions/3.0/"
	 x="0px" y="0px" width="286.4px" height="114.6px" viewBox="0 0 286.4 114.6"
	 style="overflow:scroll;enable-background:new 0 0 286.4 114.6;" xml:space="preserve">
<style type="text/css">
	.st0{fill:#202020;}
	.st1{fill:#F13A12;}
</style>
<defs>
</defs>
<g>
	<path class="st0" d="M47.2,91.1c0-1.1-0.2-2.2-0.7-3.1c-0.4-0.9-1.3-1.8-2.5-2.6c-1.2-0.8-2.9-1.6-5-2.3c-2.1-0.7-4.8-1.4-8.2-2.1
		c-4.1-0.9-7.8-2-11.3-3.3c-3.5-1.3-6.5-3-9-4.9c-2.5-2-4.5-4.2-5.9-6.9c-1.4-2.6-2.1-5.6-2.1-9.1c0-3.3,0.7-6.5,2.2-9.5
		c1.4-3,3.5-5.6,6.3-7.9c2.7-2.3,6.1-4.1,10-5.4c4-1.3,8.4-2,13.4-2c5.2,0,9.8,0.6,13.9,1.9c4.1,1.3,7.6,3.1,10.5,5.3
		c2.9,2.3,5.1,5,6.6,8.1c1.5,3.1,2.3,6.6,2.3,10.3H46.4c0-3-1-5.6-2.9-7.6c-2-2-5-3-9.2-3c-3.6,0-6.4,0.8-8.3,2.4
		c-2,1.6-2.9,3.7-2.9,6.2c0,1.2,0.3,2.2,0.8,3.1c0.5,0.9,1.4,1.7,2.5,2.5c1.2,0.8,2.7,1.5,4.6,2.1c1.9,0.6,4.2,1.2,7,1.8
		c4.3,0.8,8.3,1.9,12,3.1c3.7,1.2,6.9,2.8,9.5,4.8c2.7,1.9,4.8,4.3,6.3,7.1c1.5,2.8,2.3,6.1,2.3,10.1c0,3.5-0.8,6.8-2.4,9.8
		c-1.6,3-3.8,5.5-6.7,7.7c-2.9,2.2-6.4,3.9-10.6,5.1c-4.1,1.2-8.7,1.8-13.9,1.8c-5.6,0-10.5-0.8-14.8-2.4c-4.3-1.6-7.9-3.6-10.8-6.2
		c-2.9-2.6-5.1-5.4-6.6-8.6C0.7,94.3,0,91.1,0,87.8h20.2c0.1,2.1,0.6,3.8,1.4,5.3c0.8,1.5,1.9,2.7,3.2,3.6c1.3,0.9,2.9,1.6,4.6,2.1
		c1.7,0.4,3.6,0.7,5.5,0.7c4.1,0,7.2-0.8,9.2-2.3C46.2,95.7,47.2,93.6,47.2,91.1z"/>
	<path class="st0" d="M253.6,114.6c-6.2,0-11.7-1-16.6-3c-4.9-2-9-4.8-12.5-8.3c-3.4-3.5-6-7.6-7.8-12.3c-1.8-4.7-2.7-9.7-2.7-15.1
		v-2.9c0-6,0.9-11.6,2.6-16.6c1.7-5,4.2-9.4,7.4-13c3.2-3.6,7.1-6.5,11.7-8.5c4.6-2,9.7-3.1,15.4-3.1c5.7,0,10.8,0.9,15.2,2.8
		c4.4,1.9,8,4.5,11,8c3,3.4,5.2,7.5,6.7,12.3c1.5,4.8,2.2,10.2,2.2,16.1v9.1h-50.8c0.3,2.6,1,5,2.1,7.1c1.1,2.1,2.4,3.9,4.1,5.4
		c1.6,1.5,3.6,2.7,5.8,3.5c2.2,0.8,4.7,1.3,7.4,1.3c3.9,0,7.5-0.7,10.8-2.2c3.3-1.4,6.1-3.7,8.5-6.7l10.5,11.7
		c-1.3,1.8-2.9,3.6-4.8,5.3c-1.9,1.7-4.2,3.3-6.8,4.6c-2.6,1.4-5.5,2.4-8.8,3.2C261,114.2,257.4,114.6,253.6,114.6z M251.1,49.2
		c-2.3,0-4.3,0.4-6.1,1.2c-1.7,0.8-3.2,1.9-4.5,3.4c-1.3,1.4-2.3,3.2-3.1,5.2c-0.8,2-1.4,4.2-1.7,6.7h29.6V64c0-2.1-0.4-4.1-0.9-5.9
		c-0.6-1.8-1.4-3.4-2.6-4.7c-1.2-1.3-2.6-2.4-4.4-3.1C255.7,49.6,253.6,49.2,251.1,49.2z"/>
	<path class="st0" d="M89.6,52.1L89.6,52.1L86,43.8c-0.7-1.6-0.7-3.5-0.1-5.1c0.7-1.6,2-2.9,3.6-3.6c0.7-0.3,1.5-0.7,2.5-1.1
		c0.8-0.4,1.6-0.8,2.6-1.2V0H73.2v113.2h21.4V63.3L89.6,52.1z"/>
	<path class="st0" d="M188.1,90.5c-0.7,1.4-1.6,2.7-2.8,3.7c-1.2,1-2.6,1.8-4.2,2.4c-1.6,0.6-3.4,0.8-5.4,0.8
		c-3.2,0-5.8-0.6-7.7-1.9c-2-1.3-3.5-2.9-4.6-5c-1.1-2.1-1.9-4.6-2.2-7.4c-0.4-2.8-0.6-5.7-0.6-8.8v-2.1c0-3,0.2-5.9,0.6-8.7
		c0.4-2.8,1.1-5.3,2.2-7.4c1.1-2.1,2.6-3.8,4.6-5.1c2-1.3,4.5-1.9,7.6-1.9c2.2,0,4.1,0.4,5.7,1.1c1.7,0.7,3.1,1.7,4.2,3
		c1.1,1.3,2,2.7,2.6,4.4c0.6,1.7,0.9,3.5,1,5.4h20c0-4.8-0.9-9.1-2.5-12.9c-1.6-3.9-3.9-7.1-6.8-9.8c-2.9-2.7-6.4-4.8-10.4-6.2
		c-4.1-1.4-8.5-2.2-13.4-2.2c-6.1,0-11.5,1-16.1,3.1c-1.3,0.6-2.5,1.3-3.7,2c1.6,1.9,2.2,4.6,1.2,7.1l-3.3,7.9l0,0l-13.7,33.1
		c0.3,1.7,0.7,3.4,1.2,5c1.5,4.9,3.8,9.1,6.9,12.7c3,3.6,6.9,6.5,11.5,8.5c4.6,2.1,10,3.1,16.2,3.1c4.6,0,8.9-0.7,12.9-2.1
		c4-1.4,7.5-3.4,10.4-6c2.9-2.6,5.3-5.6,7-9.2c1.7-3.6,2.6-7.5,2.7-11.7h-20C189.1,87.4,188.8,89.1,188.1,90.5z"/>
	<path class="st1" d="M121.8,112.8L96.4,54.9c6.8-2.5,16.8-5.5,26.2-5.5c0,0,0.1,0,0.1,0c8.9,0,18.3,3,24.7,5.5l-24,57.9
		C123.1,113.5,122.2,113.5,121.8,112.8z"/>
	<path class="st1" d="M152.7,42.2l-3.2,7.8c-6.8-2.7-17-5.9-26.8-5.9c0,0-0.1,0-0.1,0c-10.4,0-21.1,3.2-28.4,5.9l-3.6-8.3
		c-0.3-0.8,0-1.7,0.8-2c4.7-1.9,13.7-7.6,31.2-7.6c0,0,0.1,0,0.1,0c15,0,24.3,5.7,29.1,7.8C152.7,40.3,153.1,41.3,152.7,42.2z"/>
</g>
</svg>
