<?xml version="1.0" encoding="UTF-8" standalone="no"?>
<svg
   xmlns:dc="http://purl.org/dc/elements/1.1/"
   xmlns:cc="http://creativecommons.org/ns#"
   xmlns:rdf="http://www.w3.org/1999/02/22-rdf-syntax-ns#"
   xmlns:svg="http://www.w3.org/2000/svg"
   xmlns="http://www.w3.org/2000/svg"
   viewBox="0 0 1299.6493 225.96533"
   height="225.96533"
   width="1299.6493"
   xml:space="preserve"
   id="svg2"
   fill="#fff"
   version="1.1"><metadata
     id="metadata8"><rdf:RDF><cc:Work
         rdf:about=""><dc:format>image/svg+xml</dc:format><dc:type
           rdf:resource="http://purl.org/dc/dcmitype/StillImage" /></cc:Work></rdf:RDF></metadata><defs
     id="defs6"><clipPath
       id="clipPath18"
       clipPathUnits="userSpaceOnUse"><path
         id="path16"
         d="M 0,169.474 H 974.737 V 0 H 0 Z" /></clipPath></defs><g
     transform="matrix(1.3333333,0,0,-1.3333333,0,225.96533)"
     id="g10"><g
       id="g12"><g
         clip-path="url(#clipPath18)"
         id="g14"><g
           transform="translate(53.8632,106.763)"
           id="g20"><path
             id="path22"
             style="fill:#fff;fill-opacity:1;fill-rule:nonzero;stroke:none"
             d="m 0,0 h -15.412 c -1.186,0 -2.047,0.979 -2.047,2.066 v 11.856 c 0,1.087 0.861,2.067 2.047,2.067 h 47.851 c 1.186,0 2.048,-0.98 2.048,-2.067 V 2.066 C 34.487,0.979 33.625,0 32.439,0 H 17.028 v -58.083 c 0,-1.086 -0.97,-2.066 -2.048,-2.066 H 2.047 c -1.078,0 -2.047,0.98 -2.047,2.066 z" /></g><g
           transform="translate(131.8886,62.9295)"
           id="g24"><path
             id="path26"
             style="fill:#fff;fill-opacity:1;fill-rule:nonzero;stroke:none"
             d="m 0,0 c 11.855,0 21.554,9.789 21.554,21.645 0,11.964 -9.699,21.862 -21.554,21.862 -11.748,0 -21.447,-9.898 -21.447,-21.862 C -21.447,9.789 -11.748,0 0,0 m 0,60.91 c 21.554,0 38.798,-17.512 38.798,-39.265 0,-21.754 -17.244,-39.048 -38.798,-39.048 -21.555,0 -38.69,17.294 -38.69,39.048 0,21.753 17.135,39.265 38.69,39.265" /></g><g
           transform="translate(210.8812,62.7122)"
           id="g28"><path
             id="path30"
             style="fill:#fff;fill-opacity:1;fill-rule:nonzero;stroke:none"
             d="M 0,0 C 12.179,0 21.016,9.68 21.016,22.08 21.016,34.37 12.179,44.051 0,44.051 H -10.346 V 0 Z m -27.159,57.973 c 0,1.087 0.863,2.067 1.94,2.067 H 1.078 c 20.8,0 37.828,-17.077 37.828,-37.96 0,-21.101 -17.028,-38.178 -37.828,-38.178 h -26.297 c -1.077,0 -1.94,0.979 -1.94,2.066 z" /></g><g
           transform="translate(296.1264,62.9295)"
           id="g32"><path
             id="path34"
             style="fill:#fff;fill-opacity:1;fill-rule:nonzero;stroke:none"
             d="m 0,0 c 11.855,0 21.554,9.789 21.554,21.645 0,11.964 -9.699,21.862 -21.554,21.862 -11.748,0 -21.447,-9.898 -21.447,-21.862 C -21.447,9.789 -11.748,0 0,0 m 0,60.91 c 21.554,0 38.798,-17.512 38.798,-39.265 0,-21.754 -17.244,-39.048 -38.798,-39.048 -21.555,0 -38.691,17.294 -38.691,39.048 0,21.753 17.136,39.265 38.691,39.265" /></g><g
           transform="translate(347.9608,120.6853)"
           id="g36"><path
             id="path38"
             style="fill:#fff;fill-opacity:1;fill-rule:nonzero;stroke:none"
             d="M 0,0 C 0,1.087 0.97,2.066 2.048,2.066 H 14.98 c 1.078,0 2.048,-0.979 2.048,-2.066 v -72.005 c 0,-1.087 -0.97,-2.066 -2.048,-2.066 H 2.048 C 0.97,-74.071 0,-73.092 0,-72.005 Z" /></g><g
           transform="translate(383.4154,121.8816)"
           id="g40"><path
             id="path42"
             style="fill:#fff;fill-opacity:1;fill-rule:nonzero;stroke:none"
             d="m 0,0 c 0,1.087 0.97,1.958 2.047,1.958 h 2.695 l 43.002,-41.767 h 0.108 v 38.613 c 0,1.087 0.861,2.066 2.047,2.066 h 12.933 c 1.078,0 2.047,-0.979 2.047,-2.066 v -73.201 c 0,-1.088 -0.969,-1.958 -2.047,-1.958 h -1.725 c -0.323,0 -1.185,0.326 -1.4,0.544 l -42.571,43.18 h -0.108 v -40.57 c 0,-1.087 -0.862,-2.067 -2.048,-2.067 H 2.156 c -1.078,0 -2.048,0.98 -2.048,2.067 z" /></g><g
           transform="translate(474.2655,122.0989)"
           id="g44"><path
             id="path46"
             style="fill:#fff;fill-opacity:1;fill-rule:nonzero;stroke:none"
             d="m 0,0 c 0.107,0.979 1.077,1.741 1.939,1.741 h 1.725 c 0.539,0 1.509,-0.435 1.832,-1.088 l 25.003,-46.988 h 0.216 L 55.718,0.653 c 0.323,0.653 1.293,1.088 1.833,1.088 h 1.723 c 0.863,0 1.832,-0.762 1.94,-1.741 l 12.179,-73.092 c 0.215,-1.413 -0.754,-2.393 -2.047,-2.393 H 58.628 c -0.97,0 -1.94,0.87 -2.048,1.74 l -4.85,33.61 H 51.515 L 33.409,-75.376 c -0.323,-0.652 -1.294,-1.196 -1.832,-1.196 h -1.94 c -0.647,0 -1.509,0.544 -1.832,1.196 L 9.592,-40.135 H 9.376 l -4.742,-33.61 c -0.109,-0.87 -0.97,-1.74 -2.048,-1.74 h -12.717 c -1.294,0 -2.264,0.98 -2.048,2.393 z" /></g><g
           transform="translate(560.371,120.6853)"
           id="g48"><path
             id="path50"
             style="fill:#fff;fill-opacity:1;fill-rule:nonzero;stroke:none"
             d="m 0,0 c 0,1.087 0.971,2.066 2.049,2.066 h 13.256 c 1.184,0 2.048,-0.979 2.048,-2.066 v -44.051 c 0,-7.614 5.603,-13.705 13.255,-13.705 7.76,0 13.471,6.091 13.471,13.705 V 0 c 0,1.087 0.863,2.066 2.049,2.066 h 13.256 c 1.077,0 2.048,-0.979 2.048,-2.066 v -44.921 c 0,-16.533 -13.795,-30.238 -30.824,-30.238 C 13.688,-75.159 0,-61.454 0,-44.921 Z" /></g><g
           transform="translate(639.1503,120.6853)"
           id="g52"><path
             id="path54"
             style="fill:#fff;fill-opacity:1;fill-rule:nonzero;stroke:none"
             d="m 0,0 c 0,1.087 0.862,2.066 2.048,2.066 h 44.618 c 1.186,0 2.047,-0.979 2.047,-2.066 v -11.856 c 0,-1.088 -0.861,-2.066 -2.047,-2.066 H 16.812 V -27.41 h 24.573 c 1.078,0 2.048,-0.979 2.048,-2.067 v -11.855 c 0,-1.196 -0.97,-2.067 -2.048,-2.067 H 16.812 v -14.684 h 29.854 c 1.186,0 2.047,-0.978 2.047,-2.066 v -11.856 c 0,-1.087 -0.861,-2.066 -2.047,-2.066 H 2.048 C 0.862,-74.071 0,-73.092 0,-72.005 Z" /></g><g
           transform="translate(728.9237,62.1677)"
           id="g56"><path
             id="path58"
             style="fill:#fff;fill-opacity:1;fill-rule:nonzero;stroke:none"
             d="m 0,0 c 4.203,0 7.759,3.48 7.759,7.94 0,4.351 -4.634,7.614 -8.837,7.614 h -8.73 V 0 Z m -1.401,29.694 c 4.094,0 7.544,3.48 7.544,7.831 0,4.35 -3.45,7.396 -7.544,7.396 H -9.808 V 29.694 Z m -25.22,28.824 c 0,1.086 0.862,2.066 2.049,2.066 h 25.11 c 12.717,0 23.172,-8.811 23.172,-20.23 0,-8.376 -7.437,-14.467 -12.502,-17.187 5.712,-2.392 14.441,-7.722 14.441,-17.729 0,-12.181 -10.67,-20.992 -23.495,-20.992 h -26.726 c -1.187,0 -2.049,0.98 -2.049,2.067 z" /></g><g
           transform="translate(768.2587,120.6853)"
           id="g60"><path
             id="path62"
             style="fill:#fff;fill-opacity:1;fill-rule:nonzero;stroke:none"
             d="M 0,0 C 0,1.087 0.861,2.066 2.048,2.066 H 14.872 C 15.95,2.066 16.92,1.087 16.92,0 v -58.083 h 25.65 c 1.185,0 2.048,-0.978 2.048,-2.066 v -11.856 c 0,-1.087 -0.863,-2.066 -2.048,-2.066 H 2.048 C 0.861,-74.071 0,-73.092 0,-72.005 Z" /></g><g
           transform="translate(823.327,120.6853)"
           id="g64"><path
             id="path66"
             style="fill:#fff;fill-opacity:1;fill-rule:nonzero;stroke:none"
             d="m 0,0 c 0,1.087 0.862,2.066 2.048,2.066 h 44.618 c 1.186,0 2.047,-0.979 2.047,-2.066 v -11.856 c 0,-1.088 -0.861,-2.066 -2.047,-2.066 H 16.812 V -27.41 h 24.573 c 1.078,0 2.048,-0.979 2.048,-2.067 v -11.855 c 0,-1.196 -0.97,-2.067 -2.048,-2.067 H 16.812 v -14.684 h 29.854 c 1.186,0 2.047,-0.978 2.047,-2.066 v -11.856 c 0,-1.087 -0.861,-2.066 -2.047,-2.066 H 2.048 C 0.862,-74.071 0,-73.092 0,-72.005 Z" /></g><g
           transform="translate(882.1688,56.9475)"
           id="g68"><path
             id="path70"
             style="fill:#fff;fill-opacity:1;fill-rule:nonzero;stroke:none"
             d="m 0,0 5.065,9.027 c 0.863,1.414 2.911,1.197 3.664,0.653 0.432,-0.218 8.192,-5.982 15.304,-5.982 4.312,0 7.437,2.719 7.437,6.526 0,4.568 -3.773,8.048 -11.101,10.985 -9.268,3.698 -20.907,10.986 -20.907,24.038 0,10.768 8.298,21.645 24.894,21.645 11.209,0 19.831,-5.765 23.064,-8.158 1.294,-0.761 1.078,-2.719 0.646,-3.48 L 42.57,46.878 c -0.754,-1.196 -2.694,-2.175 -3.664,-1.414 -0.969,0.544 -8.838,6.526 -15.412,6.526 -3.88,0 -6.789,-2.61 -6.789,-5.547 0,-4.024 3.233,-7.069 11.747,-10.55 8.406,-3.372 21.771,-10.006 21.771,-24.799 0,-11.203 -9.592,-22.515 -25.435,-22.515 -14.011,0 -21.77,5.873 -24.249,8.375 C -0.538,-1.958 -0.862,-1.523 0,0" /></g></g></g></g></svg>